<?xml version="1.0" encoding="iso-8859-1"?>
<!-- Generator: Adobe Illustrator 18.1.1, SVG Export Plug-In . SVG Version: 6.00 Build 0)  -->
<svg version="1.1" id="Capa_1" xmlns="http://www.w3.org/2000/svg" xmlns:xlink="http://www.w3.org/1999/xlink" x="0px"
     y="0px"
     viewBox="0 0 29.791 29.791" style="enable-background:new 0 0 29.791 29.791;" xml:space="preserve">
<g>
	<g>
		<g id="b65_food">
			<path style="fill:#090509;" d="M14.898,0.002C6.67,0.002,0,6.67,0,14.896c0,8.228,6.67,14.894,14.898,14.894
				c8.226,0,14.894-6.667,14.894-14.894C29.792,6.67,23.124,0.002,14.898,0.002z M4.286,14.285c-0.45,0-0.815-0.365-0.815-0.815
				c0-0.451,0.365-0.818,0.815-0.818c0.452,0,0.817,0.367,0.817,0.818C5.103,13.92,4.738,14.285,4.286,14.285z M8.775,15.101
				c-0.45,0-0.815-0.367-0.815-0.817c0-0.45,0.365-0.815,0.815-0.815c0.452,0,0.818,0.365,0.818,0.815
				C9.593,14.734,9.227,15.101,8.775,15.101z M12.041,22.65c-0.901,0-1.634-0.73-1.634-1.633c0-0.902,0.733-1.631,1.634-1.631
				s1.634,0.73,1.634,1.631C13.675,21.919,12.941,22.65,12.041,22.65z M12.041,7.348c-0.901,0-1.634-0.73-1.634-1.631
				c0-0.904,0.733-1.636,1.634-1.636s1.634,0.732,1.634,1.636C13.675,6.617,12.941,7.348,12.041,7.348z M23.977,8.367
				c0.395,0,0.713,0.321,0.713,0.715c0,0.393-0.318,0.715-0.713,0.715c-0.394,0-0.714-0.322-0.714-0.715
				C23.263,8.688,23.583,8.367,23.977,8.367z M15.714,14.285c-0.451,0-0.816-0.365-0.816-0.815c0-0.451,0.365-0.818,0.816-0.818
				c0.449,0,0.816,0.367,0.816,0.818C16.53,13.92,16.163,14.285,15.714,14.285z M17.959,5c0-0.507,0.412-0.918,0.917-0.918
				c0.505,0,0.917,0.412,0.917,0.918c0,0.508-0.412,0.92-0.917,0.92C18.371,5.92,17.959,5.507,17.959,5z M19.948,24.795
				c-0.592,0-1.072-0.483-1.072-1.073c0-0.591,0.479-1.073,1.072-1.073c0.59,0,1.072,0.48,1.072,1.073
				C21.019,24.311,20.538,24.795,19.948,24.795z M20.406,19.386c-0.338,0-0.612-0.274-0.612-0.615c0-0.336,0.274-0.609,0.612-0.609
				c0.34,0,0.614,0.273,0.614,0.609C21.019,19.111,20.745,19.386,20.406,19.386z M24.589,16.121c-0.734,0-1.327-0.592-1.327-1.328
				c0-0.731,0.592-1.324,1.327-1.324c0.731,0,1.325,0.592,1.325,1.324C25.915,15.529,25.321,16.121,24.589,16.121z"/>
		</g>
	</g>
</g>
  <g>
</g>
  <g>
</g>
  <g>
</g>
  <g>
</g>
  <g>
</g>
  <g>
</g>
  <g>
</g>
  <g>
</g>
  <g>
</g>
  <g>
</g>
  <g>
</g>
  <g>
</g>
  <g>
</g>
  <g>
</g>
  <g>
</g>
</svg>
